<svg xmlns="http://www.w3.org/2000/svg" xml:space="preserve" width="2048" height="2048" style="shape-rendering:geometricPrecision;text-rendering:geometricPrecision;image-rendering:optimizeQuality;fill-rule:evenodd;clip-rule:evenodd"><defs><style>.fil0{fill:#212121;fill-rule:nonzero}</style></defs><g id="Layer_x0020_1"><path class="fil0" d="M671.999 255.998H1376c44.033 0 84.041 17.992 113.026 46.975 28.983 28.984 46.975 68.993 46.975 113.026v95.997c0 17.673-14.328 32.001-32.001 32.001h-16.062v960H1504c17.673 0 32 14.328 32 32.001V1632c0 44.033-17.99 84.042-46.974 113.027C1460.042 1774.01 1420.033 1792 1376 1792H671.999c-44.033 0-84.041-17.991-113.026-46.974-28.983-28.985-46.975-68.993-46.975-113.026v-96.003c0-17.673 14.328-32 32.001-32h16.06v-960H544c-17.673 0-32-14.329-32-32.002V416c0-44.033 17.99-84.042 46.974-113.026 28.984-28.983 68.993-46.975 113.026-46.975zM1376 320H671.999c-26.367 0-50.361 10.81-67.775 28.223C586.81 365.637 576 389.631 576 415.998v63.997h16.06c17.674 0 32.002 14.328 32.002 32.001v1024c0 17.673-14.328 32-32.001 32H576v64.002c0 26.367 10.809 50.362 28.223 67.776 17.414 17.414 41.408 28.223 67.775 28.223H1376c26.367 0 50.361-10.81 67.775-28.223 17.414-17.414 28.224-41.409 28.224-67.775v-64.002h-16.062c-17.673 0-32-14.328-32-32v-1024c0-17.674 14.327-32.002 32-32.002h16.062v-63.997c0-26.367-10.81-50.36-28.224-67.775C1426.361 330.81 1402.367 320 1376 320z"/><path class="fil0" d="M550.966 479.998c-17.673 0-32 14.328-32 32 0 17.674 14.327 32.002 32 32.002H1497.036c17.673 0 32-14.328 32-32.001s-14.327-32.001-32-32.001H550.966zM550.966 1504c-17.673 0-32 14.328-32 32 0 17.674 14.327 32.002 32 32.002H1497.036c17.673 0 32-14.328 32-32.001s-14.327-32.001-32-32.001H550.966zM895.999 367.998c-17.673 0-32 14.328-32 32 0 17.674 14.327 32.002 32 32.002h256.002c17.673 0 32-14.328 32-32.001s-14.327-32.001-32-32.001H895.999zM971.672 1616c-17.673 0-32 14.328-32 32 0 17.674 14.327 32.002 32 32.002h104.655c17.673 0 32-14.328 32-32.001S1094 1616 1076.328 1616H971.672zM865.029 908.222c12.495-12.495 12.495-32.755 0-45.25-12.495-12.495-32.755-12.495-45.25 0l-138.404 138.403-.003-.003c-12.496 12.496-12.496 32.76 0 45.255l.182.178 138.225 138.223c12.495 12.495 32.756 12.495 45.25 0 12.495-12.495 12.495-32.756 0-45.25l-115.778-115.779L865.03 908.221zM1228.22 862.972c-12.495-12.495-32.755-12.495-45.25 0-12.495 12.495-12.495 32.755 0 45.25L1298.748 1024l-115.778 115.778c-12.495 12.495-12.495 32.756 0 45.25 12.495 12.496 32.755 12.496 45.25 0l138.223-138.222.182-.177c12.496-12.496 12.496-32.76 0-45.256l-.002.003-138.403-138.403zM1128.49 757.498c4.556-17.052-5.574-34.57-22.625-39.125-17.052-4.556-34.57 5.573-39.125 22.625L919.5 1290.503c-4.556 17.052 5.573 34.57 22.625 39.125 17.051 4.556 34.57-5.573 39.125-22.625l147.24-549.505z"/></g><path style="fill:none" d="M0 0h2048v2048H0z"/></svg>