<svg xmlns="http://www.w3.org/2000/svg" width="128" height="128"><g fill="#241c49" stroke="#0a2119" stroke-miterlimit="10"><path d="M121.693 37.847h-11.127v-2.686h11.127a1.75 1.75 0 0 0 0-3.5h-11.127V27.35a1.75 1.75 0 1 0-3.5 0v4.311H95.939a1.75 1.75 0 0 0 0 3.5h11.127v2.686H95.939a1.75 1.75 0 0 0 0 3.5h11.127v41.618l-9.146 16.85a1.75 1.75 0 0 0 3.076 1.67l3-5.52 3.912 2.386a1.751 1.751 0 0 0 1.823 0l3.912-2.386 3 5.52a1.75 1.75 0 1 0 3.076-1.67l-9.147-16.85V41.347h11.127a1.75 1.75 0 0 0 0-3.5zm-12.877 56.96-3.152-1.922 3.152-5.807 3.152 5.807zM20.934 82.965V46.316l10.056-6.35a1.749 1.749 0 0 0 .747-.993l1.335-4.617 14.979 4.419a1.777 1.777 0 0 0 .5.072 1.751 1.751 0 0 0 .5-3.43l-15-4.424.9-3.113a1.75 1.75 0 1 0-3.362-.973L30.688 30 16 25.671a1.75 1.75 0 1 0-.99 3.357l14.7 4.337-1.156 4L5.372 52a1.75 1.75 0 1 0 1.869 2.959l10.193-6.436v34.442l-9.146 16.85a1.75 1.75 0 1 0 3.076 1.67l3-5.52 3.912 2.386a1.751 1.751 0 0 0 1.823 0l3.912-2.386 3 5.52a1.749 1.749 0 0 0 1.539.916 1.731 1.731 0 0 0 .834-.213 1.75 1.75 0 0 0 .7-2.373zm-1.75 11.842-3.152-1.922 3.152-5.807 3.151 5.807zM64 57.224a18.342 18.342 0 1 0 18.342 18.342A18.363 18.363 0 0 0 64 57.224zm0 33.184a14.842 14.842 0 1 1 14.842-14.842A14.859 14.859 0 0 1 64 90.408z"/><path d="M99.353 73.372V53.483a1.751 1.751 0 0 0-1.75-1.75h-21.3a26.736 26.736 0 0 0-24.614 0H30.4a1.751 1.751 0 0 0-1.75 1.75v27.644a1.75 1.75 0 0 0 1.75 1.75h7.79a26.84 26.84 0 0 0 7 11.8l-3.014 5.077a1.75 1.75 0 1 0 3.01 1.787l2.7-4.54a26.773 26.773 0 0 0 32.238 0l2.695 4.54a1.75 1.75 0 0 0 3.01-1.787L82.81 94.68a26.751 26.751 0 0 0 8.024-19.114c0-.149-.009-.3-.011-.444H97.6a1.751 1.751 0 0 0 1.753-1.75zm-3.5-18.139v6.444h-8.9a27.01 27.01 0 0 0-5.471-6.444zm-49.334 0a27.01 27.01 0 0 0-5.471 6.444h-8.9v-6.444zM32.147 79.377v-14.2h7.113a26.746 26.746 0 0 0-1.819 14.2zM64 98.9a23.334 23.334 0 1 1 23.334-23.334A23.36 23.36 0 0 1 64 98.9zm26.542-27.278a26.629 26.629 0 0 0-1.8-6.445h7.113v6.445z"/></g></svg>