<svg xmlns="http://www.w3.org/2000/svg" xml:space="preserve" width="2048" height="2048" style="shape-rendering:geometricPrecision;text-rendering:geometricPrecision;image-rendering:optimizeQuality;fill-rule:evenodd;clip-rule:evenodd"><defs><style>.fil1{fill:#424242;fill-rule:nonzero}</style></defs><g id="Layer_x0020_1"><path d="m633.326 1641.88-1.943 4.858c-6.409 17.916-5.776 37.587 1.94 55.046 8.018 18.143 22.771 32.156 41.264 39.312 18.399 7.121 38.815 6.716 56.87-1.262 17.565-7.763 30.235-23.255 38.875-39.994l176.945-342.79 10.963-.968c50.16-4.434 101.51-5.31 151.866-6.528 47.648-1.152 95.74-1.857 143.289-5.01l20.11-1.333c28.976-1.921 57.906-11.3 78.795-32.187 20.552-20.554 31.759-48.142 32.141-77.156.004-.263.003-.528-.005-.792l-81.773-508.712-.037.006-.93-6.022-1.844-11.474c-.122-.752-.196-1.487-.275-2.232l-.042-.27c-3.755-24.295-14.564-46.052-32.53-62.94-15.568-14.636-35.323-24.206-56.316-27.966-20.936-3.75-42.829-1.672-62.507 6.495-22.135 9.188-39.312 28.963-53.166 47.853L924.645 900.1 744.94 885.515c-31.334-2.544-57.226 10.78-71.21 38.987-4.543 9.165-7.282 19.255-8.1 29.447-.813 10.156.31 20.51 3.322 30.245 9.33 30.146 32.857 47.312 64.224 49.857l217.172 17.626c12.358 1.003 24.836-.452 36.262-5.443 11.659-5.093 22.49-13.431 31.567-22.253.407-.396.848-.825 1.257-1.269l89.222-121.648 54.296 297.73-276.905 25.309c-10.751.983-20.356 4.358-29.245 10.495-23.453 16.19-39.533 50.717-51.848 75.69-6.304 12.78-12.643 25.804-20.176 37.908-30.294 48.67-58.03 100.339-84.276 151.302-24.091 46.778-45.664 94.408-67.177 142.382z" style="fill:#424242"/><path class="fil1" d="M1028.26 357.703c23.295-23.296 55.476-37.704 91.018-37.704s67.723 14.41 91.018 37.704 37.706 55.476 37.706 91.018-14.41 67.725-37.706 91.018c-23.295 23.295-55.476 37.705-91.018 37.705-35.54 0-67.723-14.41-91.018-37.705-23.296-23.295-37.704-55.476-37.704-91.018s14.408-67.723 37.704-91.018zM1489 1764c2.209 17.465 18.16 29.834 35.626 27.625 17.465-2.209 29.833-18.16 27.624-35.626l-41.7-324.735-31.626 4 31.74-4.075c-2.082-16.22-15.97-28.034-31.92-27.925h-378.03c-16.11 0-29.44 11.908-31.67 27.4L995.886 1753c-3.866 17.19 6.935 34.26 24.125 38.126 17.19 3.866 34.26-6.935 38.126-24.125l61.86-263.002h324.728L1489 1764zM428.724 815.508l149.228-53.26-.013-.048a15.924 15.924 0 0 1 9.526.305l220.308 68.812.013-.052c8.554 2.211 13.698 10.94 11.487 19.495a15.963 15.963 0 0 1-8.169 10.222l-118.365 70.05.015.025c-4.484 2.652-9.734 2.865-14.211 1.037l-251.902-85.75-.031.02c-8.365-2.846-12.837-11.937-9.991-20.302 1.916-5.629 6.66-9.495 12.106-10.554z"/><path class="fil1" d="M1666.42 924.715c7.261-26.269-8.148-53.456-34.417-60.716-26.27-7.261-53.456 8.149-60.716 34.417l-121.873 530.343c-4.694 16.982 5.268 34.557 22.25 39.25 16.981 4.695 34.556-5.267 39.25-22.249l155.506-521.045z"/></g><path style="fill:none" d="M0 0h2048v2048H0z"/></svg>