<svg xmlns="http://www.w3.org/2000/svg" xml:space="preserve" width="2048" height="2048" style="shape-rendering:geometricPrecision;text-rendering:geometricPrecision;image-rendering:optimizeQuality;fill-rule:evenodd;clip-rule:evenodd"><defs><style>.fil0{fill:none}.fil1{fill:#212121;fill-rule:nonzero}</style></defs><g id="Layer_x0020_1"><path class="fil0" d="M0 0h2048v2048H0z"/><g id="_344232616"><path id="_445074312" class="fil0" d="M254.41 255.996h1536v1536h-1536z"/><path id="_344238232" class="fil1" d="M1348 881.795c46.393 21.757 83.895 32.64 122.348 32.64 39.51 0 81.61-11.294 136.658-33.877-13.834-32.835-6.148-51.398 4.01-75.91 5.938-14.333 13.127-31.681 13.127-60.674 0-41.176-16.316-78.467-42.766-105.632-26.406-27.114-62.866-44.201-103.22-45.04v.09h-.374v-.09c-40.358.839-76.82 17.922-103.228 45.04-26.45 27.162-42.768 64.456-42.768 105.632 0 28.436 7.05 45.844 12.9 60.286 10.13 25.004 17.802 43.967 3.313 77.535zm334.857 214.611c-1.22-.654-15.107-5.382-31.994-11.043.345.96.68 1.932 1.002 2.918 6.318 19.317 8.203 43.19.151 71.668l-12.556 44.402-29.892-35.044c-.045-.055-12.275-14.56-26.206-22.794-9.922 13.877-21.373 26.65-33.109 38.07-23.806 23.174-48.948 41.042-64.358 50.993l-13.312 3.955c-14.65 0-34.538-16.127-53.674-36.98-6.536-7.124-13.31-14.988-19.836-22.889-3.529-11.28-7.887-22.258-13.843-32.6l-2.038-3.537c-22.608-39.254-81.718-67.775-136.665-88.655 1.126-.645 2.257-1.27 3.398-1.872l-.002-.003c7.069-3.785 68.637-24.174 94.006-32.575 6.968-2.308 8.132-2.586 9.897-3.227l41.079-14.923-8.472 42.803c-.238 1.206-.357 1.973-.406 2.514-.05.548-.163 2.466-.283 4.63l-.677 11.92-9.838 6.893c-5.632 3.944-17.856 14.135-23.867 31.282 8.615-4.754 18.018-8.498 27.692-9.923l16.506-2.43 8.383 14.585c5.343 9.293 29.263 40.677 51.24 64.63 7.079 7.713 11.746 14.287 14.515 17.923 13.162-9.154 30.105-22.14 46.214-37.821 13.741-13.374 26.793-28.585 36.076-44.732l8.383-14.584 16.506 2.43c9.673 1.424 19.076 5.167 27.692 9.92-6.01-17.146-18.234-27.336-23.866-31.28l-9.84-6.894-.675-11.918c-.122-2.175-.234-4.1-.283-4.631-.05-.535-.167-1.302-.405-2.514l-8.475-42.803 41.08 14.923c1.766.644 2.928.92 9.896 3.227 25.369 8.401 86.937 28.79 94.007 32.575l-.002.003c9.194 4.845 17.86 11.15 25.836 18.57 23.242 21.62 42.239 54.047 51.766 87.701 9.905 34.999 9.814 72.19-5.747 101.861-3.945 7.52-8.755 14.444-14.5 20.619l-.196.097c-10.098 10.677-21.296 18.215-33.613 23.114-12.23 4.861-25.047 7.04-38.56 7.04H1433.586v-2.462l-3.408-16.869-1.23-2.929c-3.62-8.633-6.583-17.815-9.188-27.133H1690.992c7.737 0 14.565-1.045 20.424-3.375 5.722-2.275 11.02-5.86 15.918-11.003l-.053-.05a45.146 45.146 0 0 0 6.977-9.816c9.228-17.596 8.663-41.84 1.888-65.779-7.156-25.28-21.059-49.293-37.873-64.937-5.06-4.706-10.185-8.503-15.224-11.144l-.192-.097zm-212.509-132.58c-53.312 0-102.951-16.344-167.153-49.029l-23.733-12.083 13.892-22.744c17.297-28.32 12.458-40.27 5.608-57.188-7.514-18.549-16.567-40.904-16.567-78.808 0-54.44 21.69-103.866 56.852-139.974 35.226-36.17 84.03-58.923 138.151-59.904l.385-.098h.374l.385.098c54.117.981 102.918 23.734 138.141 59.904 35.163 36.11 56.853 85.536 56.853 139.974 0 38.39-9.301 60.84-16.986 79.387-6.871 16.585-11.69 28.218 5.65 56.61l14.703 24.072-25.892 11.33c-73.803 32.301-128.02 48.453-180.663 48.453z"/><path id="_344237704" class="fil1" d="M705.391 751.425c0-3.644.55-16.21 1.072-28.15.382-8.702.743-16.996.743-21.695 0-30.155-12.251-57.489-32.04-77.28-19.789-19.792-47.117-32.045-77.27-32.045h-5.839c-30.16 0-57.491 12.251-77.28 32.044-19.794 19.792-32.044 47.126-32.044 77.281 0 4.802.37 13.198.755 21.958.522 11.857 1.066 24.25 1.066 27.887v23.316l-23.442 1.283c-5.12.28-7.736 2.118-8.576 4.539-.808 2.334-1.04 5.418-.79 8.895.294 4.058 1.301 8.286 2.881 12.316 3.291 8.4 8.012 15.331 11.995 15.331h18.134l5.403 17.46c6.346 20.502 14.467 37.246 23.416 50.926 8.72 13.326 18.105 23.563 27.303 31.442 9.702 8.296 19.16 14.039 27.448 18.004 15.1 7.22 23.822 8.329 24.09 8.329h5.48c.194 0 8.664-1.055 23.825-8.282 8.358-3.984 17.765-9.651 27.161-17.679l.097-.097c10.028-8.522 20.21-19.808 29.489-34.725 8.132-13.072 15.531-28.887 21.498-48.013l5.42-17.365h18.118c4.024 0 8.733-6.866 11.998-15.202 1.573-4.016 2.576-8.24 2.864-12.31.243-3.418.007-6.47-.807-8.814v-.098c-.863-2.485-3.527-4.374-8.725-4.657l-23.443-1.28v-23.32zm48.8 319.923c-16.91-6.254-33.426-11.92-47.345-16.694-2.608-.894-5.11-1.751-7.773-2.675-32.856 21.537-66.686 33.36-101.65 33.963-35.298.61-70.808-10.269-106.564-34.178-2.334.776-4.77 1.58-7.357 2.434-44.76 14.763-135.108 44.565-145.78 67.243l-.026-.01c-6.196 15.362-16.87 45.33-24.798 72.505-5.228 17.916-9.096 33.896-9.096 41.517a27.078 27.078 0 0 0 7.942 19.213 27.078 27.078 0 0 0 19.214 7.942h288.395c-4.28 16.44-7.992 34.314-8.112 49.391H330.958c-21.147 0-40.282-8.562-54.134-22.413-13.851-13.852-22.413-32.987-22.413-54.133 0-12.348 4.77-33.112 11.217-55.214 8.546-29.292 20.404-62.337 27.043-78.574l.481-1.252c19.727-41.907 123.501-76.143 174.913-93.098 8.274-2.73 15.201-5.015 18.474-6.178l12.296-4.36 10.568 7.834c30.256 22.43 59.286 32.616 87.25 32.132 28.004-.483 56.1-11.732 84.272-32.145l10.493-7.603 12.178 4.323c3.085 1.096 10.803 3.743 19.264 6.645 27.674 9.493 64.52 22.135 97.64 37.41-21.227 7.334-44.273 15.936-66.308 25.975zm1.471-345.95-.297 6.91c14.501 6.505 23.737 18.159 28.66 32.274l.031-.01a63.382 63.382 0 0 1 1.395 4.566 104.135 104.135 0 0 0-3.898 9.658c-4.93 14.207-6.643 29.362-5.565 44.337.166 2.308.397 4.616.69 6.918-7.968 14.686-19.883 26.843-34.246 32.69-6.422 17.52-13.942 32.678-22.098 45.79-12.209 19.623-25.892 34.72-39.52 46.301l-.009-.008c-13.313 11.354-26.373 19.252-37.861 24.729-23.992 11.437-44.52 13.105-45.048 13.105h-5.48c-.7 0-21.12-1.776-45.312-13.348-11.764-5.625-25.01-13.625-38.255-24.947-12.535-10.74-25.152-24.422-36.56-41.86-9.114-13.93-17.53-30.374-24.608-49.792-17.544-7.193-31.469-23.841-38.973-42.993-3.353-8.56-5.51-17.746-6.16-26.788-.695-9.624.355-19.345 3.491-28.38 4.893-14.095 14.085-25.73 28.538-32.23l-.29-6.661c-.483-11.002-.948-21.547-.948-24.08 0-43.787 17.786-83.473 46.517-112.201 28.728-28.73 68.408-46.514 112.2-46.514h5.84c43.787 0 83.465 17.786 112.192 46.515 28.727 28.731 46.51 68.413 46.51 112.201 0 2.413-.456 12.853-.936 23.818z"/><path id="_344237200" class="fil1" d="M1144.54 774.697c0-4.05.612-18.019 1.19-31.291.423-9.67.827-18.892.827-24.113 0-33.521-13.619-63.905-35.617-85.906-21.997-22-52.375-35.62-85.891-35.62h-6.491c-33.525 0-63.905 13.619-85.904 35.62-22 22-35.62 52.385-35.62 85.906 0 5.335.41 14.669.838 24.406.58 13.18 1.187 26.957 1.187 30.998v25.918l-26.058 1.427c-5.69.312-8.599 2.355-9.533 5.046-.9 2.594-1.155 6.02-.877 9.885.324 4.513 1.445 9.213 3.202 13.693 3.657 9.336 8.905 17.04 13.332 17.04h20.159l6.005 19.41c7.052 22.79 16.082 41.404 26.03 56.61 9.69 14.811 20.125 26.191 30.347 34.95 10.787 9.22 21.299 15.604 30.514 20.012 16.782 8.026 26.48 9.258 26.777 9.258h6.092c.215 0 9.63-1.171 26.483-9.206 9.291-4.43 19.747-10.728 30.192-19.65l.106-.108c11.149-9.473 22.466-22.02 32.78-38.6 9.04-14.532 17.265-32.112 23.9-53.372l6.023-19.303h20.14c4.473 0 9.707-7.632 13.337-16.897 1.748-4.465 2.864-9.162 3.184-13.685.27-3.799.007-7.192-.897-9.798v-.107c-.96-2.764-3.922-4.863-9.698-5.178l-26.06-1.425v-25.92zm164.314 413.659c-21.222-28.06-109.215-58.246-162.698-76.592-2.898-.994-5.679-1.947-8.64-2.973-36.522 23.941-74.127 37.082-112.994 37.753-39.237.679-78.71-11.416-118.455-37.993-2.595.864-5.302 1.757-8.178 2.706-49.755 16.41-150.183 49.538-162.049 74.747l-.026-.013c-6.89 17.077-18.756 50.39-27.567 80.597-5.81 19.916-10.11 37.68-10.11 46.149a30.094 30.094 0 0 0 8.829 21.356 30.094 30.094 0 0 0 21.357 8.83h588.166a30.107 30.107 0 0 0 21.362-8.828 30.093 30.093 0 0 0 8.504-16.9c-7.896-20.545-13.42-43.572-18.862-66.249-5.491-22.886-10.889-45.378-18.64-62.59zm-144.898-128.492c61.016 20.93 162.158 55.622 191.506 99.632l2.037 3.537c10.415 22.062 16.741 48.42 23.18 75.26 5.313 22.14 10.716 44.653 18.76 63.827l2.145 10.617c0 23.509-9.518 44.78-24.915 60.176-15.398 15.396-36.671 24.913-60.181 24.913H728.322c-23.508 0-44.78-9.517-60.175-24.914-15.397-15.397-24.914-36.668-24.914-60.175 0-13.724 5.303-36.807 12.47-61.376 9.5-32.558 22.68-69.29 30.058-87.339l.536-1.395c21.929-46.581 137.283-84.635 194.433-103.486 9.195-3.033 16.895-5.574 20.534-6.864l13.667-4.849 11.748 8.71c33.633 24.933 65.902 36.254 96.986 35.717 31.13-.537 62.359-13.041 93.676-35.733l11.664-8.452 13.536 4.806c3.43 1.218 12.01 4.161 21.414 7.388zm36.464-314.098-.332 7.682c16.121 7.23 26.386 20.185 31.86 35.876l.035-.012c3.494 10.056 4.665 20.903 3.9 31.674-.712 10.043-3.102 20.25-6.832 29.77-8.33 21.264-23.797 39.723-43.34 47.68-7.135 19.473-15.496 36.324-24.561 50.9-13.571 21.814-28.783 38.594-43.931 51.468l-.009-.01c-14.799 12.62-29.315 21.401-42.087 27.488-26.668 12.715-49.487 14.568-50.074 14.568h-6.092c-.779 0-23.477-1.972-50.368-14.836-13.078-6.254-27.801-15.146-42.522-27.732-13.935-11.939-27.962-27.148-40.643-46.532-10.128-15.483-19.486-33.763-27.351-55.349-19.503-7.995-34.982-26.5-43.322-47.788-3.729-9.517-6.126-19.727-6.85-29.778-.77-10.698.395-21.504 3.88-31.547 5.44-15.67 15.659-28.6 31.724-35.827l-.321-7.403c-.539-12.23-1.054-23.952-1.054-26.765 0-48.676 19.77-92.789 51.706-124.725 31.934-31.936 76.043-51.706 124.722-51.706h6.49c48.674 0 92.778 19.771 124.71 51.707 31.933 31.938 51.703 76.047 51.703 124.723 0 2.68-.508 14.284-1.04 26.473z"/></g></g></svg>